<svg width="90" height="90" viewBox="0 0 100 100" fill="none" xmlns="http://www.w3.org/2000/svg">
  <!-- Nós externos -->
  <circle cx="50" cy="15" r="5" fill="#0F172A"/>
  <circle cx="80" cy="32" r="5" fill="#0F172A"/>
  <circle cx="80" cy="68" r="5" fill="#0F172A"/>
  <circle cx="50" cy="85" r="5" fill="#0F172A"/>
  <circle cx="20" cy="68" r="5" fill="#0F172A"/>
  <circle cx="20" cy="32" r="5" fill="#0F172A"/>

  <!-- Nó central -->
  <circle cx="50" cy="50" r="6" fill="#22D3EE"/>

  <!-- Linhas externas (hexágono) -->
  <line x1="50" y1="15" x2="80" y2="32" stroke="#0F172A" stroke-width="1.5"/>
  <line x1="80" y1="32" x2="80" y2="68" stroke="#0F172A" stroke-width="1.5"/>
  <line x1="80" y1="68" x2="50" y2="85" stroke="#0F172A" stroke-width="1.5"/>
  <line x1="50" y1="85" x2="20" y2="68" stroke="#0F172A" stroke-width="1.5"/>
  <line x1="20" y1="68" x2="20" y2="32" stroke="#0F172A" stroke-width="1.5"/>
  <line x1="20" y1="32" x2="50" y2="15" stroke="#0F172A" stroke-width="1.5"/>

  <!-- Linhas internas (conectando ao centro) -->
  <line x1="50" y1="50" x2="50" y2="15" stroke="#22D3EE" stroke-width="1.5" opacity="0.7"/>
  <line x1="50" y1="50" x2="80" y2="32" stroke="#22D3EE" stroke-width="1.5" opacity="0.7"/>
  <line x1="50" y1="50" x2="80" y2="68" stroke="#22D3EE" stroke-width="1.5" opacity="0.7"/>
  <line x1="50" y1="50" x2="50" y2="85" stroke="#22D3EE" stroke-width="1.5" opacity="0.7"/>
  <line x1="50" y1="50" x2="20" y2="68" stroke="#22D3EE" stroke-width="1.5" opacity="0.7"/>
  <line x1="50" y1="50" x2="20" y2="32" stroke="#22D3EE" stroke-width="1.5" opacity="0.7"/>
</svg>
